<?xml version="1.0" encoding="UTF-8"?><svg id="Layer_1" xmlns="http://www.w3.org/2000/svg" width="1024" height="1024" viewBox="0 0 1024 1024"><rect x="-9060.5" y="-2221.06" width="20992" height="13994" fill="none"/><rect x="-9060.5" y="-2221.06" width="20992" height="13994" fill="none"/><g><g><path d="M289.33,459.69c-.86-.79-1.72-1.58-2.58-2.37-.08,1.58-.11,3.19,.48,4.81,25.26,89.58,118.13,161.03,213.94,164.29,71.62,2.43,132.37-22.93,181.98-74.02,43.2-44.49,64.29-98.45,64.63-160.54,.04-7.04-2.12-9.22-9.27-9.32-28.82-.41-55.82,6.32-81.28,19.46-27.37,14.13-52.23,32.26-77.79,49.27-30.42,20.25-61.31,39.84-97,49.44-71.17,19.14-137.8,15.28-193.09-41.02Z" fill="#bce4ea"/><path d="M745.33,363.7c-.9-5.54-1.44-10.25-2.45-14.86-28.25-129.13-154.46-203.7-270.3-182.1-56.24,10.49-103.67,36.39-140.55,80.03-36.85,43.61-56.45,93.88-55.79,151.77,.14,12.7,4.69,19.71,14.93,25.84,54.69,32.76,111.25,34.26,169.49,11.13,30.48-12.1,57.03-31.56,86.1-46.29,62.67-31.74,127.59-47.12,198.57-25.52Z" fill="#bce4ea"/><path d="M316.63,463.26c56.14,29.1,114.38,27.14,173.77,9.05,36.42-11.1,66.57-32.21,97.85-51.49,30.66-18.9,62.41-35.7,98.75-44.05,9.97-2.29,20.61-2.21,31.81-7.43-7.51-.33-13.13-.83-18.74-.78-55.94,.48-105.79,18.22-152.28,45.54-19.59,11.51-38.56,23.9-59.17,33.95-52.26,25.46-106.37,32.49-162.92,15.2-3-.92-5.77-1.66-9.07,0Z" fill="#bce4ea"/></g><g><path d="M45.52,820.7v-136.96h101.56v23.17H73.17v30.36h68.76v23.08H73.17v37.28h76.52v23.08H45.52Z"/><path d="M172.3,820.7v-136.96h27.65v136.96h-27.65Z"/><path d="M226.39,820.7v-136.96h58.21c14.64,0,25.27,1.23,31.91,3.69,6.63,2.46,11.94,6.84,15.93,13.13,3.98,6.29,5.98,13.49,5.98,21.58,0,10.28-3.02,18.76-9.06,25.46-6.04,6.7-15.07,10.92-27.09,12.66,5.98,3.49,10.92,7.32,14.81,11.49,3.89,4.17,9.14,11.58,15.74,22.24l16.72,26.72h-33.07l-19.99-29.8c-7.1-10.65-11.96-17.36-14.57-20.13-2.62-2.77-5.39-4.67-8.31-5.7-2.93-1.03-7.57-1.54-13.92-1.54h-5.61v57.18h-27.65Zm27.65-79.04h20.46c13.27,0,21.55-.56,24.85-1.68,3.3-1.12,5.89-3.05,7.75-5.79,1.87-2.74,2.8-6.17,2.8-10.28,0-4.61-1.23-8.33-3.69-11.16-2.46-2.83-5.93-4.62-10.42-5.37-2.24-.31-8.97-.47-20.18-.47h-21.58v34.76Z"/><path d="M487.99,820.7h-30.08l-11.96-31.11h-54.75l-11.3,31.11h-29.34l53.35-136.96h29.24l54.84,136.96Zm-50.92-54.19l-18.87-50.82-18.5,50.82h37.37Z"/><path d="M581.23,820.7v-57.65l-50.17-79.32h32.42l32.23,54.19,31.58-54.19h31.86l-50.36,79.51v57.46h-27.56Z"/><path d="M652.42,769.69c0-8.72,2.15-17.16,6.45-25.32,4.3-8.16,10.39-14.39,18.27-18.69,7.88-4.3,16.68-6.45,26.39-6.45,15.01,0,27.31,4.87,36.9,14.62,9.59,9.75,14.39,22.06,14.39,36.95s-4.84,27.45-14.53,37.32c-9.69,9.87-21.88,14.81-36.58,14.81-9.09,0-17.77-2.06-26.02-6.17-8.25-4.11-14.53-10.14-18.83-18.08-4.3-7.94-6.45-17.61-6.45-29.01Zm26.91,1.4c0,9.84,2.34,17.38,7.01,22.61s10.43,7.85,17.28,7.85,12.6-2.62,17.24-7.85c4.64-5.23,6.96-12.83,6.96-22.8s-2.32-17.19-6.96-22.42c-4.64-5.23-10.39-7.85-17.24-7.85s-12.61,2.62-17.28,7.85-7.01,12.77-7.01,22.61Z"/><path d="M772.94,827.24l29.99,3.64c.5,3.49,1.65,5.89,3.46,7.19,2.49,1.87,6.41,2.8,11.77,2.8,6.85,0,11.99-1.03,15.42-3.08,2.3-1.37,4.05-3.58,5.23-6.63,.81-2.18,1.21-6.2,1.21-12.05v-14.48c-7.85,10.71-17.75,16.07-29.71,16.07-13.33,0-23.89-5.64-31.67-16.91-6.1-8.91-9.16-19.99-9.16-33.26,0-16.63,4-29.34,12.01-38.12,8-8.78,17.95-13.17,29.85-13.17s22.39,5.39,30.36,16.16v-13.92h24.57v89.04c0,11.71-.97,20.46-2.9,26.25-1.93,5.79-4.64,10.34-8.13,13.64-3.49,3.3-8.14,5.89-13.97,7.75-5.82,1.87-13.19,2.8-22.1,2.8-16.82,0-28.75-2.88-35.78-8.64-7.04-5.76-10.56-13.06-10.56-21.91,0-.87,.03-1.93,.09-3.18Zm23.45-58.21c0,10.53,2.04,18.23,6.12,23.12,4.08,4.89,9.11,7.33,15.09,7.33,6.41,0,11.83-2.51,16.26-7.52,4.42-5.01,6.63-12.44,6.63-22.28s-2.12-17.91-6.35-22.89c-4.24-4.98-9.59-7.47-16.07-7.47s-11.48,2.45-15.56,7.33c-4.08,4.89-6.12,12.35-6.12,22.38Z"/><path d="M911.87,751.75l-23.82-4.3c2.68-9.59,7.29-16.69,13.83-21.3,6.54-4.61,16.26-6.91,29.15-6.91,11.71,0,20.43,1.39,26.16,4.16,5.73,2.77,9.76,6.29,12.1,10.56,2.34,4.27,3.5,12.1,3.5,23.5l-.28,30.64c0,8.72,.42,15.15,1.26,19.29,.84,4.14,2.41,8.58,4.72,13.31h-25.97c-.69-1.74-1.53-4.33-2.52-7.75-.44-1.56-.75-2.58-.93-3.08-4.48,4.36-9.28,7.63-14.39,9.81-5.11,2.18-10.56,3.27-16.35,3.27-10.22,0-18.27-2.77-24.15-8.31-5.89-5.54-8.83-12.55-8.83-21.02,0-5.61,1.34-10.6,4.02-15,2.68-4.39,6.43-7.75,11.26-10.09,4.83-2.34,11.79-4.38,20.88-6.12,12.27-2.3,20.77-4.45,25.51-6.45v-2.62c0-5.04-1.25-8.64-3.74-10.79-2.49-2.15-7.19-3.22-14.11-3.22-4.67,0-8.31,.92-10.93,2.76-2.62,1.84-4.73,5.06-6.35,9.67Zm35.13,21.3c-3.36,1.12-8.69,2.46-15.98,4.02-7.29,1.56-12.05,3.08-14.29,4.58-3.43,2.43-5.14,5.51-5.14,9.25s1.37,6.85,4.11,9.53c2.74,2.68,6.23,4.02,10.46,4.02,4.73,0,9.25-1.56,13.55-4.67,3.18-2.37,5.26-5.26,6.26-8.69,.68-2.24,1.03-6.51,1.03-12.8v-5.23Z"/></g></g></svg>